<?xml version="1.0" standalone="no"?>
<!DOCTYPE svg PUBLIC "-//W3C//DTD SVG 1.1//EN" "http://www.w3.org/Graphics/SVG/1.1/DTD/svg11.dtd" >
<svg xmlns="http://www.w3.org/2000/svg">
<metadata>Generated by IcoMoon</metadata>
<defs>
<font id="icomoon" horiz-adv-x="1024">
<font-face units-per-em="1024" ascent="896" descent="-128" />
<missing-glyph horiz-adv-x="1024" />
<glyph unicode="&#x20;" d="" />
<glyph unicode="&#x78;" glyph-name="print" horiz-adv-x="1001" d="M281 543q-27-1-53-1h-83q-18 0-36.5-6t-32.5-18.5-23-32-9-45.5v-76h912v41q0 16-0.5 30t-0.5 18q0 13-5 29t-17 29.5-31.5 22.5-49.5 9h-133v-97h-438v97zM955 310v-52q0-23 0.5-52t0.5-58-10.5-47.5-26-30-33-16-31.5-4.5q-14-1-29.5-0.5t-29.5 0.5h-32l-45 128h-439l-44-128h-63q-20 0-45 1-25 0-41 9.5t-25.5 23-13.5 29.5-4 30v167h911zM163 247q-12 0-21-8.5t-9-21.5 9-21.5 21-8.5q13 0 22 8.5t9 21.5-9 21.5-22 8.5zM316 123q-8-26-14-48-5-19-10.5-37t-7.5-25-3-15 1-14.5 9.5-10.5 21.5-4h365q23 0 34 12t2 38q-5 13-9.5 30.5t-9.5 34.5q-5 19-11 39h-368zM336 498v228q0 11 2.5 23t10 21.5 20.5 15.5 34 6h188q31 0 51.5-14.5t20.5-52.5v-227h-327z" />
<glyph unicode="&#xe602;" glyph-name="list" d="M793-64h-562q-42 0-72.5 30.5t-30.5 73.5v625q0 42 30.5 72.5t72.5 30.5h58q13 0 22.5-9.5t9.5-22.5-9.5-22.5-22.5-9.5h-58q-16 0-27.5-11.5t-11.5-27.5v-625q0-17 11.5-28.5t27.5-11.5h562q16 0 27.5 11.5t11.5 28.5v625q0 16-11.5 27.5t-27.5 11.5h-56q-14 0-23 9.5t-9 22.5 9 22.5 23 9.5h56q42 0 72.5-30.5t30.5-72.5v-625q0-43-30.5-73.5t-72.5-30.5zM595 640h-167q-31 0-53.5 22.5t-22.5 54.5v38q0 32 22.5 54.5t53.5 22.5h167q32 0 54.5-22.5t22.5-54.5v-38q0-32-22.5-54.5t-54.5-22.5zM428 768q-5 0-8.5-4t-3.5-9v-38q0-5 3.5-9t8.5-4h167q5 0 9 4t4 9v38q0 5-4 9t-9 4h-167zM736 479h-320q-13 0-22.5 9.5t-9.5 22.5 9.5 22.5 22.5 9.5h320q13 0 22.5-9.5t9.5-22.5-9.5-22.5-22.5-9.5zM320 511q0-13-9.5-22.5t-22.5-9.5-22.5 9.5-9.5 22.5 9.5 22.5 22.5 9.5 22.5-9.5 9.5-22.5zM736 320h-320q-13 0-22.5 9.5t-9.5 22.5 9.5 22.5 22.5 9.5h320q13 0 22.5-9.5t9.5-22.5-9.5-22.5-22.5-9.5zM320 352q0-13-9.5-22.5t-22.5-9.5-22.5 9.5-9.5 22.5 9.5 22.5 22.5 9.5 22.5-9.5 9.5-22.5zM736 159h-320q-13 0-22.5 9.5t-9.5 22.5 9.5 22.5 22.5 9.5h320q13 0 22.5-9.5t9.5-22.5-9.5-22.5-22.5-9.5zM320 191q0-13-9.5-22.5t-22.5-9.5-22.5 9.5-9.5 22.5 9.5 22.5 22.5 9.5 22.5-9.5 9.5-22.5z" />
<glyph unicode="&#xe605;" glyph-name="close" d="M962 763l-71 71-385-385-373 373-71-70 373-374-361-362 70-70 362 361 374-373 70 71-373 373z" />
<glyph unicode="&#xe60c;" glyph-name="back" d="M278 259l407-407q12-12 30-12t30.5 12.5 12.5 30.5-12 31l-377 376 374 373q12 13 12 31t-12.5 30.5-30.5 12.5-31-13l-402-402q-1-1-1-2-13-12-13-30t13-31z" />
<glyph unicode="&#xe60e;" glyph-name="next" d="M787 363l-423-418q-9-9-21.5-9t-21.5 9l-21 21q-9 8-9 20.5t9 21.5l381 376-381 375q-9 9-9 21.5t9 20.5l21 21q9 9 21.5 9t21.5-9l423-418q9-8 9-20.5t-9-20.5z" />
<glyph unicode="&#xe60f;" glyph-name="plus" d="M975 384q0-10-7-17.5t-17-7.5h-414v-414q0-10-7.5-17t-17.5-7-17.5 7-7.5 17v414h-414q-10 0-17 7.5t-7 17.5 7 17.5 17 7.5h414v414q0 10 7.5 17t17.5 7 17.5-7 7.5-17v-414h414q10 0 17-7.5t7-17.5z" />
<glyph unicode="&#xe613;" glyph-name="weituochaxun" d="M948.955 383.712h-5.050c-0.512-2.237-3.677-2.749-12.564-0.032l-47.217-0.064c0 6.746-0.64 13.331-0.991 19.98-31.968 14.578-79.984 37.755-152.104 73.367-20.555 3.676-26.47 2.11-46.577-4.507-30.786-10.070-121.063-12.852-191.265-16.304-6.713-8.695-7.513-21.515 88.487-38.33 33.599-5.914 33.727-4.987 76.052 0.608 1.567 0.447 6.873 0.511 6.873 0.511 25.415 0 39.897-21.29 40.28-46.29 0.64-37.178-39.832-93.25-218.725-99.26h-0.064c-17.678 0-77.459 3.26-132.508 44.052-28.355 21.162-65.246 45.97-99.836 35.005-21.258-6.746 123.11-110.546 231.353-156.388 31.009-13.17 191.169 19.437 316.356 48.975 4.251 0.927 8.63 0.352 12.627-0.64l38.585-14.001c2.302 5.402 4.668 10.773 6.746 16.303l57.030-31.040c-57.766-149.355-193.246-281.064-410.021-281.064-249.32 0-443.525 201.207-443.525 449.343 0 248.2 194.206 448.064 443.525 448.064s442.565-199.864 442.565-448.064c-0.032-0.064-0.032-0.16-0.032-0.224zM505.015 767.361c-212.875 0-378.63-171.157-378.63-383.041s165.755-383.777 378.63-383.777c134.81 0 250.565 68.604 317.57 172.628l-18.030 6.49c-104.887-15.25-167.16-28.9-208.431-37.979-38.841-8.503-63.105-13.49-86.761-13.49-12.116 0-24.072 1.31-37.755 4.156-66.27 14.161-226.365 146.35-266.325 174.257-7.321 5.211-12.052 12.724-13.49 21.355-4.157 25.319 0.543 46.162 14.065 62.018 14.098 16.687 23.88 25.19 52.556 25.19 58.853 0 102.425-21.865 134.042-45.522 41.686-30.849 89.766-30.913 91.78-31.2 66.94-7.13 137.974 16.655 161.79 23.080-112.847 4.924-179.66 24.168-201.782 64.832-16.56 30.593-10.805 59.876-1.343 74.485 5.53 8.472 14.482 13.874 24.647 14.737 151.625 11.509 166.618 8.983 196.572 18.766 25.030 8.311 41.782 13.842 83.532 5.85 2.622-0.448 5.435-1.375 8.184-2.686 53.003-26.277 88.903-43.668 115.5-55.944-42.324 164.252-187.716 285.795-366.32 285.795z" />
<glyph unicode="&#xe61f;" glyph-name="jingjirenguanli" d="M511.322 254.027c15.084 0 27.314-12.234 27.314-27.314 0-15.086-12.231-27.313-27.314-27.313s-27.312 12.226-27.312 27.313c-0.007 15.080 12.227 27.314 27.312 27.314v0zM511.322-9.301c0 0-68.744 25.913-68.744 63.054 0 26.281 25.976 85.607 45.998 127.426 6.853-3.43 14.558-5.409 22.746-5.409 8.185 0 15.89 1.978 22.742 5.409 20.020-41.819 45.999-101.145 45.999-127.426 0-37.141-68.741-63.054-68.741-63.054v0zM827.438-8.984c-17.642 0-31.989 14.357-31.989 31.999 0 89.293-40.756 171.645-111.803 225.94-14.023 10.718-16.707 30.845-5.995 44.867 10.675 14 30.798 16.708 44.829 6.003l0.006-0.015c87.036-66.514 136.951-167.396 136.951-276.795 0-17.642-14.351-31.999-31.999-31.999v0zM511.322 777.6c-129.701 0-235.218-105.525-235.218-235.227 0-79.216 40.776-153.113 106.172-196.275-130.486-52.361-219.072-180.823-219.072-323.084 0-17.642 14.354-31.999 31.998-31.999s31.991 14.357 31.991 31.999c0 156.673 127.464 284.143 284.13 284.138 129.704 0 235.224 105.517 235.224 235.221s-105.521 235.227-235.225 235.227zM511.322 371.148c-94.412 0-171.224 76.815-171.224 171.23 0 94.413 76.812 171.227 171.224 171.227 94.419 0 171.232-76.815 171.232-171.227 0-94.415-76.813-171.23-171.232-171.23z" />
<glyph unicode="&#xe624;" glyph-name="dianhua" d="M480 352c-53.333 53.333-104 114.667-80 138.667 34.667 34.667 66.667 56 2.667 133.333s-104 18.667-136-16c-40-40-2.667-184 141.333-330.667s290.667-181.333 328-141.333c34.667 34.667 93.333 74.667 16 136s-98.667 32-133.333-2.667c-24-21.333-85.333 29.333-138.667 82.667zM512 864c-264 0-480-216-480-480s216-480 480-480 480 216 480 480-216 480-480 480zM512-56c-242.667 0-440 197.333-440 440s197.333 440 440 440 440-197.333 440-440-197.333-440-440-440z" />
<glyph unicode="&#xe626;" glyph-name="shoujibangding" d="M734.75 763.687h-445.5c-30.375 0-55.688-25.313-55.688-56.531v-647.156c0-31.219 25.313-56.531 55.688-56.531h445.5c30.375 0 55.688 25.313 55.688 56.531v647.156c0 31.219-25.313 56.531-55.688 56.531zM526.344 32.156c-22.781 0-42.188 18.563-42.188 42.188s18.563 42.188 42.188 42.188 42.188-18.563 42.188-42.188c-0.844-22.781-19.406-42.188-42.188-42.188zM734.75 229.594c0-31.219-25.313-56.531-55.688-56.531h-334.125c-30.375 0-55.688 25.313-55.688 56.531v421.875c0 31.219 25.313 56.531 55.688 56.531h334.125c30.375 0 55.688-25.313 55.688-56.531v-421.875zM496.813 530.812c10.125-5.063 22.781-0.844 28.688 9.281l14.344 26.156c10.125 19.406 32.063 19.406 48.938 11.813 9.281-4.219 15.188-11.813 18.563-21.094s1.688-19.406-2.531-27.844l-44.719-83.531c-20.25-37.969-38.813-29.531-46.406-25.313-10.125 5.063-22.781 0.844-28.688-9.281-5.063-10.125-1.688-22.781 9.281-27.844 17.719-8.438 35.438-10.125 51.469-5.063 20.25 6.75 37.969 22.781 51.469 48.938l44.719 83.531c10.125 18.563 11.813 40.5 5.906 59.906-6.75 20.25-20.25 36.281-39.656 45.563-41.344 20.25-86.063 7.594-105.469-29.531l-14.344-26.156c-5.063-11.813-1.688-24.469 8.438-29.531zM415.813 253.219c19.406-9.281 41.344-10.125 61.594-4.219 19.406 6.75 37.125 20.25 47.25 39.656l10.969 21.094c5.063 10.125 1.688 22.781-9.281 27.844-10.125 5.063-22.781 0.844-28.688-9.281l-10.969-21.938c-10.125-18.563-32.906-26.156-51.469-16.875-9.281 4.219-16.031 11.813-18.563 21.094-3.375 9.281-2.531 19.406 2.531 27.844l41.344 78.469c8.438 16.031 26.156 41.344 48.938 30.375 10.125-5.063 22.781-0.844 28.688 9.281 5.063 10.125 0.844 22.781-9.281 27.844-38.813 18.563-80.156 0-105.469-48.938l-41.344-76.781c-10.125-18.563-11.813-40.5-5.906-59.906 6.75-20.25 20.25-36.281 39.656-45.563z" />
<glyph unicode="&#xe643;" glyph-name="weituoguanli" d="M510.144-106.213c270.308 0 490.239 219.931 490.239 490.239s-219.931 490.239-490.239 490.239c-270.311 0-490.239-219.928-490.239-490.239 0-270.308 219.903-490.239 490.239-490.239zM510.144 833.302c247.728 0 449.279-201.551 449.279-449.279 0-247.726-201.551-449.276-449.279-449.276-247.726 0-449.279 201.551-449.279 449.276 0 247.729 201.553 449.279 449.279 449.279zM749.197 201.648c-7.66-10.15-16.16-19.11-26.575-26.65-18.825-13.61-40.205-22.65-62.75-29.68-19.19-5.99-38.795-10.56-58.9-13.2-11.705-1.53-23.41-3.15-35.17-4.28-10.14-0.98-20.35-1.54-30.53-1.88-12.995-0.44-26.010-0.85-38.998-0.55-12.333 0.29-24.653 1.36-36.953 2.39-9.555 0.8-19.157 1.59-28.573 3.19-15.9 2.69-31.763 5.68-47.47 9.17-17.875 3.97-35.038 9.97-51.47 17.49-13.475 6.15-26.078 13.55-37.153 23.030-15.613 13.36-26.205 29.66-34.89 47.24-7.69 15.56-13.585 31.66-17.765 48.24-3.135 12.44-5.795 25.005-7.948 37.61-1.92 11.255-3.022 22.63-4.172 33.98-0.758 7.5-1.105 15.035-1.388 22.57-0.365 9.73-0.84 19.478-0.6 29.21 0.3 12.175 0.823 24.378 2.068 36.498 2.528 24.605 6.598 38.46 13.658 62.368 4.527 15.333 10.16 30.32 17.495 44.78 6.13 12.087 13.427 23.512 22.548 33.89 9.432 10.733 21.15 19.215 33.993 26.355 16.733 9.302 34.728 16.123 53.395 21.468 17.94 5.135 36.173 9.238 54.818 11.663 10.27 1.335 20.545 2.702 30.863 3.67 9.695 0.91 19.435 1.597 29.173 1.863 15.965 0.438 31.955 0.915 47.91 0.512 13.33-0.335 26.625-1.835 39.93-2.938 22.705-1.88 45-5.925 66.97-11.318 15.005-3.68 29.68-8.33 43.83-14.267 12.030-5.043 23.545-10.848 34.195-18.060 14.655-9.933 26.205-22.24 35.325-36.628 9.975-15.728 17.69-32.32 23.020-49.738 4.27-13.958 7.73-17.588 10.91-31.79 2.38-10.63 3.915-21.425 5.47-32.19 0.87-6.018 1.26-12.115 1.44-18.185 0.58-18.745 1.37-37.495 1.265-56.243-0.070-11.2-1.66-22.395-2.555-33.595-0.050-0.615-0.030-1.245-0.035-1.87-0.050-4.935-0.075-5.025-5.080-4.015-22.48 4.535-44.385 10.88-65.355 19.42-23.825 9.69-47.18 20.36-70.665 30.735-8.44 3.725-17.285 6.513-26.565 6.312-8.39-0.175-16.84-1.57-25.060-3.267-20.19-4.17-40.16-9.2-60.39-13.16-20.67-4.060-41.523-7.375-62.345-10.79-8.31-1.36-16.733-2.17-25.128-3.11-3.855-0.425-5.877-2.7-6.53-7.59-2.222-16.64 11.070-31.99 27.24-36.57 5.512-1.56 11.578-1.865 17.415-2.045 10.047-0.315 20.133-0.4 30.178-0.010 12.105 0.475 24.19 1.505 36.27 2.375 7.67 0.56 15.33 1.255 22.995 1.92 4.385 0.38 8.77 0.77 13.145 1.25 8.16 0.89 8.865-3.8 7.22-9.48-1.97-6.815-7.235-11.485-13.355-15.36-13.865-8.76-29.555-13.99-45.455-18.63-9.305-2.715-18.69-5.71-28.29-6.885-10.372-1.27-21.052-0.995-31.557-0.565-8.068 0.33-16.068 1.97-24.105 2.98-10.868 1.365-20.668 5.125-30.268 9.93-12.17 6.080-24.65 11.76-37.4 16.77-16.208 6.365-32.715 12.14-49.295 17.675-8.645 2.885-17.655 5.075-27.055 4.915-17.62-0.29-26.243-11.15-25.41-25.41 0.060-1.020 1.37-2.27 2.46-2.92 18.63-11.030 37.203-22.16 56.020-32.93 19.198-10.985 38.718-21.51 57.953-32.44 8.993-5.11 17.585-10.81 26.488-16.060 13.905-8.2 27.82-16.4 43.93-20.82 9.050-2.47 18.233-3.36 27.5-1.77 27.185 4.66 54.34 9.49 81.49 14.31 16.010 2.85 31.95 6.020 48.010 8.64 12.525 2.040 25.21 3.27 37.765 5.2 12.56 1.92 24.53-0.85 36.535-3.26 13.385-2.7 26.68-5.75 40.005-8.67 0.713-0.15 1.378-0.47 2.308-0.8v0zM466.381 473.666c-35.74 0-71.48 0.028-107.22-0.055-2.887-0.008-5.865-0.478-8.645-1.26-16.080-4.52-21.77-22.080-15.978-35.858 4.653-11.062 13.975-15.583 25.795-15.595 65.523-0.062 131.048-0.050 196.573 0 6.985 0.005 13.985 0.248 20.955 0.71 6.43 0.427 11.53 3.657 15.55 8.363 5.33 6.228 6.745 13.475 5.755 21.413-0.83 6.692-3.815 12.21-8.98 16.545-5.12 4.288-11.335 5.753-18.015 5.748-35.26-0.018-70.525-0.011-105.79-0.011v0zM466.019 558.199c-35.398 0-70.795 0.018-106.193-0.040-2.693-0.002-5.468-0.245-8.065-0.897-17.343-4.347-23.062-22.202-17.18-36.345 4.58-11.020 13.885-15.458 25.533-15.47 67.58-0.095 135.155-0.062 202.733-0.020 4.845 0.002 9.705 0.255 14.54 0.67 8.375 0.72 14.5 5.050 18.585 11.958 3.23 5.47 4.095 11.45 3.2 17.765-0.99 7.005-3.98 12.715-9.8 17.117-5.1 3.857-10.95 5.215-17.16 5.228-35.396 0.069-70.796 0.034-106.193 0.034v0z" />
<glyph unicode="&#xe668;" glyph-name="map" d="M806 345.2c58.1 71 96.9 135.6 96.9 200.2 0 109.8-96.9 206.7-213.1 206.7s-206.8-90.4-206.8-206.6c0-64.6 38.8-122.7 84-187.3l-58.1-12.9-109.8 32.3c12.9 25.8 19.4 45.2 19.4 71 0 64.6-51.7 116.3-116.3 116.3-58.1 0-109.8-51.7-109.8-116.3 0-25.8 12.9-51.7 25.8-77.5l-155-355.2 239 90.4 219.6-90.4 206.7 90.4 232.5-90.5-155 329.4zM696.2 648.8c58.1 0 103.3-45.2 103.3-96.9s-51.7-103.3-103.3-103.3c-58.1 0-103.3 45.2-103.3 96.9s45.2 103.3 103.3 103.3zM302.2 506.7c32.3 0 58.1-25.8 58.1-58.1s-25.8-58.1-58.1-58.1c-25.8 0-51.7 25.8-51.7 58.1s25.9 58.1 51.7 58.1zM715.6 157.9l-200.2-84-213.1 84-161.5-71 90.4 232.5h12.9l58.1-77.5c19.4 38.8 45.2 64.6 64.6 90.4l135.6-45.2 84 25.8c32.3-38.8 64.6-84 96.9-129.2 32.3 45.2 58.1 84 90.4 122.7l90.4-226.1-148.5 77.6z" />
<glyph unicode="&#xe6e0;" glyph-name="addition" d="M512 64c-176.448 0-320 143.552-320 320s143.552 320 320 320 320-143.552 320-320-143.552-320-320-320M512 768c-211.744 0-384-172.256-384-384s172.256-384 384-384 384 172.256 384 384-172.256 384-384 384M683.936 425.056h-139.936v139.968c0 17.673-14.327 32-32 32s-32-14.327-32-32v0-139.968h-139.936c-17.673 0-32-14.327-32-32s14.327-32 32-32v0h139.936v-139.968c0-17.673 14.327-32 32-32s32 14.327 32 32v0 139.968h139.968c17.673 0 32 14.327 32 32s-14.327 32-32 32v0" />
<glyph unicode="&#xe6ea;" glyph-name="collection_fill" d="M877.632 439.2c14.976 14.72 20.384 32.96 14.816 49.984-5.536 17.024-20.608 28.544-41.344 31.584l-190.24 27.84c-6.976 1.024-18.464 9.472-21.6 15.904l-85.12 173.696c-9.28 18.944-24.896 29.76-42.88 29.76-17.952 0-33.6-10.816-42.816-29.76l-85.12-173.696c-3.104-6.432-14.592-14.848-21.6-15.904l-190.24-27.84c-20.704-3.040-35.776-14.56-41.344-31.584s-0.16-35.232 14.816-49.984l137.696-135.232c5.088-4.992 9.536-18.816 8.32-25.92l-32.48-190.912c-3.552-20.832 2.752-38.816 17.344-49.344 7.52-5.44 16.224-8.16 25.472-8.16 8.576 0 17.6 2.336 26.56 7.040l170.176 90.176c6.048 3.2 20.448 3.2 26.528 0l170.144-90.112c18.528-9.856 37.504-9.44 52.064 1.056 14.56 10.528 20.864 28.48 17.344 49.28l-32.48 190.976c-1.28 7.104 3.2 20.928 8.32 25.92l137.664 135.232z" />
<glyph unicode="&#xe6eb;" glyph-name="collection" d="M695.104 349.632c-20.16-19.808-31.328-54.4-26.56-82.368l26.976-158.56-140.992 74.688c-25.056 13.248-61.408 13.28-86.464 0l-140.992-74.656 27.008 158.56c4.736 27.904-6.464 62.528-26.56 82.336l-114.56 112.512 158.080 23.136c27.936 4.096 57.312 25.6 69.792 51.040l70.464 143.872 70.464-143.872c12.512-25.472 41.856-46.944 69.824-51.040l158.080-23.136-114.56-112.512zM877.632 439.168c14.976 14.72 20.384 32.96 14.816 50.016-5.536 17.024-20.64 28.512-41.344 31.552l-190.272 27.872c-6.944 1.024-18.432 9.472-21.6 15.872l-85.088 173.76c-9.248 18.88-24.896 29.76-42.88 29.76-17.92 0-33.568-10.88-42.848-29.76l-85.056-173.76c-3.136-6.4-14.656-14.848-21.632-15.872l-190.272-27.84c-20.704-3.072-35.744-14.56-41.28-31.584-5.6-17.024-0.192-35.264 14.784-50.016l137.664-135.168c5.12-5.024 9.6-18.848 8.352-25.92l-32.512-190.944c-3.52-20.8 2.784-38.816 17.344-49.344 7.52-5.44 16.256-8.16 25.472-8.16 8.576 0 17.632 2.368 26.56 7.104l170.176 90.144c6.080 3.2 20.48 3.2 26.56 0l170.144-90.144c18.496-9.824 37.504-9.408 52.032 1.056 14.56 10.56 20.896 28.512 17.376 49.312l-32.512 190.976c-1.216 7.072 3.232 20.896 8.32 25.92l137.696 135.2z" />
<glyph unicode="&#xe6ec;" glyph-name="coordinates" d="M512 82.688c-66.432 80.384-224 293.248-224 397.312 0 123.488 100.48 224 224 224s224-100.512 224-224c0-103.776-156.96-316.064-224-397.344M512 768c-158.784 0-288-129.184-288-288 0-148.416 217.696-413.088 243.232-443.616 10.596-13.236 26.694-21.687 44.772-21.856h0.124c17.985 0.171 33.976 8.558 44.424 21.583l0.088 0.113c24.896 29.76 243.36 295.104 243.36 443.776 0 158.816-129.216 288-288 288M512 416c-35.296 0-64 28.704-64 64s28.704 64 64 64 64-28.704 64-64-28.704-64-64-64M512 608c-70.592 0-128-57.408-128-128s57.408-128 128-128 128 57.408 128 128-57.408 128-128 128" />
<glyph unicode="&#xe6ef;" glyph-name="createtask" d="M544 95.872l-320-0.16-0.064 96.32-0.064 160-0.032 64-0.096 160-0.032 96 576.288 0.192 0.256-576.224-256.256-0.128zM799.84 736h-576.128c-35.176-0.055-63.676-28.565-63.712-63.741v-576.547c0-35.136 28.608-63.68 63.744-63.68h576.512c35.157 0.036 63.653 28.499 63.744 63.639v576.585c-0.145 35.236-28.743 63.744-63.999 63.744-0.056 0-0.113 0-0.169 0h0.009zM680.608 576h-224c-17.673 0-32-14.327-32-32s14.327-32 32-32v0h224c17.673 0 32 14.327 32 32s-14.327 32-32 32v0M680.608 416h-224c-17.673 0-32-14.327-32-32s14.327-32 32-32v0h224c17.673 0 32 14.327 32 32s-14.327 32-32 32v0M680.608 256h-224c-17.673 0-32-14.327-32-32s14.327-32 32-32v0h224c17.673 0 32 14.327 32 32s-14.327 32-32 32v0M352 576c-17.673 0-32-14.327-32-32s14.327-32 32-32v0c17.673 0 32 14.327 32 32s-14.327 32-32 32v0M352 416c-17.673 0-32-14.327-32-32s14.327-32 32-32v0c17.673 0 32 14.327 32 32s-14.327 32-32 32v0M352 256c-17.673 0-32-14.327-32-32s14.327-32 32-32v0c17.673 0 32 14.327 32 32s-14.327 32-32 32v0" />
<glyph unicode="&#xe6f2;" glyph-name="delete_fill" d="M649.824 291.424c5.79-5.79 9.371-13.789 9.371-22.624 0-17.67-14.325-31.995-31.995-31.995-8.835 0-16.834 3.581-22.624 9.371l-98.976 98.976-98.976-98.976c-5.78-5.812-13.782-9.409-22.624-9.409s-16.844 3.597-22.623 9.408l-0.001 0.001c-5.789 5.791-9.369 13.789-9.369 22.624s3.58 16.833 9.369 22.624l98.976 98.976-98.976 98.976c-5.558 5.749-8.983 13.59-8.983 22.231 0 17.673 14.327 32 32 32 8.641 0 16.482-3.425 22.24-8.991l98.967-98.967 98.976 98.976c5.749 5.558 13.59 8.983 22.231 8.983 17.673 0 32-14.327 32-32 0-8.641-3.425-16.482-8.991-22.24l-98.967-98.967 98.976-98.976zM512 768c-211.712 0-384-172.288-384-384 0-211.744 172.288-384 384-384 211.744 0 384 172.256 384 384 0 211.712-172.256 384-384 384z" />
<glyph unicode="&#xe6f5;" glyph-name="editor" d="M489.376 361.376c5.78-5.812 13.782-9.409 22.624-9.409s16.844 3.597 22.623 9.408l304.001 304.001c5.79 5.79 9.371 13.789 9.371 22.624 0 17.67-14.325 31.995-31.995 31.995-8.835 0-16.834-3.581-22.624-9.371v0l-304-304c-5.797-5.787-9.382-13.787-9.382-22.624s3.586-16.837 9.382-22.624v0M832 416c-17.673 0-32-14.327-32-32v0l0.256-288-576.256-0.256-0.256 576.256h288.256c17.673 0 32 14.327 32 32s-14.327 32-32 32v0h-288.256c-35.183-0.055-63.689-28.561-63.744-63.739v-576.517c0-35.136 28.608-63.744 63.744-63.744h576.512c35.183 0.055 63.689 28.561 63.744 63.739v288.261c0 17.673-14.327 32-32 32v0" />
<glyph unicode="&#xe70c;" glyph-name="message" d="M800 192v-17.888h-184.128c-29.664 0-61.184-18.848-74.912-44.832l-28.96-54.72-28.96 54.752c-13.728 25.952-45.248 44.8-74.912 44.8h-184.128v465.888h576v-448zM805.312 704h-586.624c-32.352 0-58.688-27.488-58.688-61.248v-471.392c0-33.76 26.4-61.248 58.816-61.248h189.312c5.92 0 15.712-5.728 18.368-10.752l38.048-71.968 2.912-4.544c11.168-14.528 27.392-22.848 44.544-22.848s33.376 8.32 44.544 22.848l40.96 76.512c2.464 4.608 11.968 10.752 18.368 10.752h189.472c32.352 0 58.656 27.488 58.656 61.248v471.392c0 33.76-26.336 61.248-58.688 61.248zM336 448c-12.352 0-23.488-4.8-32-12.448-9.816-8.756-15.975-21.432-16-35.548v-0.004c0-14.176 6.24-26.752 16-35.552 8.412-7.691 19.651-12.414 31.993-12.448h0.007c26.51 0 48 21.49 48 48s-21.49 48-48 48v0M688 448c-26.51 0-48-21.49-48-48s21.49-48 48-48v0c12.352 0 23.488 4.8 32 12.448 9.76 8.8 16 21.376 16 35.552-0.025 14.12-6.184 26.796-15.953 35.511l-0.047 0.041c-8.412 7.691-19.651 12.414-31.993 12.448h-0.007M512 448c-12.352 0-23.488-4.8-32-12.448-9.816-8.756-15.975-21.432-16-35.548v-0.004c0-14.176 6.24-26.752 16-35.552 8.412-7.691 19.651-12.414 31.993-12.448h0.007c12.352 0 23.488 4.8 32 12.448 9.76 8.8 16 21.376 16 35.552-0.025 14.12-6.184 26.796-15.953 35.511l-0.047 0.041c-8.412 7.691-19.651 12.414-31.993 12.448h-0.007" />
<glyph unicode="&#xe70d;" glyph-name="dingwei" d="M512.001 569.334c-101.935 0-185.334-83.4-185.334-185.334s83.4-185.333 185.334-185.333c101.933 0 185.333 83.4 185.333 185.333s-83.402 185.334-185.333 185.334v0 0zM926.682 430.332c-20.848 192.285-176.064 347.5-368.349 368.35v94.981h-92.671v-94.981c-192.279-20.849-347.494-176.064-368.343-368.35h-94.981v-92.663h94.981c20.849-192.285 176.064-347.503 368.35-368.35v-94.981h92.671v94.981c192.279 20.848 347.496 176.064 368.343 368.35h94.981v92.663h-94.982zM512.001 59.67c-178.383 0-324.33 145.948-324.33 324.336 0 178.377 145.946 324.323 324.33 324.323 178.382 0 324.33-145.947 324.33-324.323-0.001-178.388-145.949-324.336-324.33-324.336v0 0zM512.001 59.67" />
<glyph unicode="&#xe71c;" glyph-name="qrcode" d="M224 479.904v192.096l192 0.096 0.096-192.096-192.096-0.096zM416.096 736h-192.192c-35.271-0.055-63.849-28.633-63.904-63.899v-192.197c0.055-35.271 28.633-63.849 63.899-63.904h192.197c35.271 0.055 63.849 28.633 63.904 63.899v192.197c-0.055 35.271-28.633 63.849-63.899 63.904h-0.005zM224 95.904v192.096l192 0.096 0.096-192.096-192.096-0.096zM416.096 352h-192.192c-35.271-0.055-63.849-28.633-63.904-63.899v-192.197c0.055-35.271 28.633-63.849 63.899-63.904h192.197c35.271 0.055 63.849 28.633 63.904 63.899v192.197c-0.055 35.271-28.633 63.849-63.899 63.904h-0.005zM608 479.904v192.096l192 0.096 0.096-192.096-192.096-0.096zM800.096 736h-192.192c-35.271-0.055-63.849-28.633-63.904-63.899v-192.197c0.055-35.271 28.633-63.849 63.899-63.904h192.197c35.271 0.055 63.849 28.633 63.904 63.899v192.197c-0.055 35.271-28.633 63.849-63.899 63.904h-0.005zM704 288c-17.673 0-32-14.327-32-32v0-192c0-17.673 14.327-32 32-32s32 14.327 32 32v0 192c0 17.673-14.327 32-32 32v0M576 288c-17.673 0-32-14.327-32-32v0-192c0-17.673 14.327-32 32-32s32 14.327 32 32v0 192c0 17.673-14.327 32-32 32v0M832 352c-17.673 0-32-14.327-32-32v0-256c0-17.673 14.327-32 32-32s32 14.327 32 32v0 256c0 17.673-14.327 32-32 32v0" />
<glyph unicode="&#xe729;" glyph-name="share" d="M736 96c-35.296 0-64 28.704-64 64s28.704 64 64 64 64-28.704 64-64-28.704-64-64-64M288 320c-35.296 0-64 28.704-64 64s28.704 64 64 64 64-28.704 64-64-28.704-64-64-64M736 672c35.296 0 64-28.704 64-64s-28.704-64-64-64-64 28.704-64 64 28.704 64 64 64M736 288c-50.64-0.139-94.34-29.716-114.9-72.513l-0.332-0.767-204.896 117.056c-2.806 1.511-6.068 2.631-9.521 3.177l-0.175 0.023c6.201 14.48 9.811 31.328 9.824 49.019v0.005c0 6.656-0.992 13.088-1.984 19.456 0.608 0.32 1.28 0.416 1.856 0.768l219.616 125.472c23.425-30.242 59.699-49.559 100.49-49.696h0.022c70.592 0 128 57.408 128 128s-57.408 128-128 128-128-57.408-128-128c0-6.72 0.992-13.152 1.984-19.616-0.608-0.288-1.28-0.256-1.856-0.608l-219.616-125.472c-23.425 30.242-59.699 49.559-100.49 49.696h-0.022c-70.592 0-128-57.408-128-128s57.408-128 128-128c32.579 0.112 62.248 12.483 84.654 32.738l-0.11-0.098c2.705-5.181 6.648-9.391 11.448-12.338l224.136-128.078c0.352-0.224 0.736-0.256 1.12-0.448 6.24-64.768 60.352-115.776 126.752-115.776 70.592 0 128 57.408 128 128s-57.408 128-128 128" />
<glyph unicode="&#xe732;" glyph-name="task" d="M224 95.744l-0.288 576.256h96.288v-31.68c0-35.456 28.64-64.32 63.872-64.32h256.256c35.311 0.163 63.872 28.826 63.872 64.159 0 0.056 0 0.113 0 0.169v-0.009 31.68l96 0.256 0.256-576.256-576.256-0.256zM640 703.68l0.128-63.68-256.128 0.32v63.36l-0.128 0.32 256.128-0.32zM799.84 736h-104.8c-11.072 19.040-31.424 32-54.912 32h-256.256c-23.488 0-43.808-12.928-54.912-32h-105.248c-35.184-0.036-63.694-28.558-63.712-63.742v-576.514c0-35.136 28.608-63.744 63.744-63.744h576.512c35.183 0.055 63.689 28.561 63.744 63.739v576.517c-0.145 35.236-28.743 63.744-63.999 63.744-0.056 0-0.113 0-0.169 0h0.009zM619.072 466.912l-151.744-165.888-62.112 69.6c-5.886 6.572-14.398 10.689-23.872 10.689-17.674 0-32.001-14.327-32.001-32.001 0-8.2 3.084-15.68 8.156-21.342l-0.027 0.030 85.696-96c5.844-6.526 14.277-10.63 23.67-10.688h0.202c8.96 0 17.536 3.776 23.616 10.4l175.648 192c5.201 5.672 8.388 13.264 8.388 21.6 0 17.675-14.329 32.004-32.004 32.004-9.339 0-17.744-4-23.595-10.381l-0.021-0.024" />
<glyph unicode="&#xe735;" glyph-name="time" d="M512 64c-176.448 0-320 143.552-320 320s143.552 320 320 320 320-143.552 320-320-143.552-320-320-320M512 768c-211.744 0-384-172.256-384-384s172.256-384 384-384 384 172.256 384 384-172.256 384-384 384M544 390.144v185.856c0 17.673-14.327 32-32 32s-32-14.327-32-32v0-199.104c0-8.48 3.36-16.64 9.376-22.624l107.296-107.296c5.78-5.812 13.782-9.409 22.624-9.409s16.844 3.597 22.623 9.408l0.001 0.001c5.789 5.791 9.369 13.789 9.369 22.624s-3.58 16.833-9.369 22.624l-97.92 97.92z" />
<glyph unicode="&#xe749;" glyph-name="packup" d="M793.024 185.728c5.838-6.109 14.050-9.906 23.149-9.906 17.673 0 32 14.327 32 32 0 8.749-3.511 16.677-9.2 22.454l0.004-0.004-310.304 320c-5.823 5.999-13.963 9.723-22.972 9.723-9.242 0-17.569-3.918-23.41-10.183l-0.018-0.019-297.696-320c-5.047-5.632-8.132-13.113-8.132-21.315 0-17.673 14.327-32 32-32 9.013 0 17.156 3.726 22.972 9.723l0.008 0.008 274.752 295.328 286.848-295.808z" />
<glyph unicode="&#xe74a;" glyph-name="unfold" d="M231.424 549.792c-5.824 6.004-13.967 9.731-22.98 9.731-17.673 0-32-14.327-32-32 0-8.201 3.085-15.682 8.159-21.345l-0.027 0.030 297.696-320c5.859-6.285 14.186-10.203 23.428-10.203 9.009 0 17.149 3.723 22.964 9.715l0.008 0.008 310.304 320c5.686 5.773 9.197 13.701 9.197 22.45 0 17.673-14.327 32-32 32-9.099 0-17.311-3.797-23.137-9.894l-0.012-0.012-286.848-295.808-274.752 295.36z" />
<glyph unicode="&#xe95b;" glyph-name="bangumi" d="M981.188 607.892c-88.808 12.768-183.382 22.016-282.076 27.22l164.888 164.888-64 64-224.558-224.556c-21.006 0.368-42.156 0.556-63.442 0.556v0l-256 256-64-64 194.196-194.196c-120.922-4.242-236.338-14.524-343.386-29.912-27.532-107.726-42.81-226.752-42.81-351.892s15.278-244.166 42.804-351.89c143.642-20.652 302.34-32.11 469.196-32.11s325.55 11.458 469.188 32.11c27.534 107.724 42.812 226.75 42.812 351.89s-15.278 244.166-42.812 351.892zM863.892 21.406c-107.73-13.766-226.75-21.406-351.892-21.406s-244.166 7.64-351.892 21.406c-20.648 71.816-32.108 151.166-32.108 234.594 0 83.43 11.458 162.78 32.108 234.596 107.726 13.766 226.75 21.404 351.892 21.404 125.136 0 244.162-7.638 351.886-21.404 20.656-71.816 32.114-151.166 32.114-234.596 0-83.428-11.458-162.778-32.108-234.594z" />
<glyph unicode="&#xe986;" glyph-name="search" d="M992.262 24.604l-242.552 206.294c-25.074 22.566-51.89 32.926-73.552 31.926 57.256 67.068 91.842 154.078 91.842 249.176 0 212.078-171.922 384-384 384-212.076 0-384-171.922-384-384s171.922-384 384-384c95.098 0 182.108 34.586 249.176 91.844-1-21.662 9.36-48.478 31.926-73.552l206.294-242.552c35.322-39.246 93.022-42.554 128.22-7.356s31.892 92.898-7.354 128.22zM384 256c-141.384 0-256 114.616-256 256s114.616 256 256 256 256-114.616 256-256-114.614-256-256-256z" />
<glyph unicode="&#xea9a;" glyph-name="weibo" d="M430.2-2c-169.6-16.8-316 60-327 171.2-11 111.4 117.6 215 287 231.8 169.6 16.8 316-60 326.8-171.2 11.2-111.4-117.4-215.2-286.8-231.8zM769.2 367.4c-14.4 4.4-24.4 7.2-16.8 26.2 16.4 41.2 18 76.6 0.2 102-33.2 47.4-124.2 45-228.4 1.2 0 0-32.8-14.2-24.4 11.6 16 51.6 13.6 94.6-11.4 119.6-56.6 56.6-207-2.2-336-131.2-96.4-96.2-152.4-198.8-152.4-287.4 0-169.2 217.2-272.2 429.6-272.2 278.4 0 463.8 161.8 463.8 290.2 0 77.8-65.4 121.8-124.2 140zM954.2 677.4c-67.2 74.6-166.4 103-258 83.6v0c-21.2-4.6-34.6-25.4-30-46.4 4.6-21.2 25.2-34.6 46.4-30 65.2 13.8 135.6-6.4 183.4-59.4s60.8-125.2 40.2-188.4v0c-6.6-20.6 4.6-42.6 25.2-49.4 20.6-6.6 42.6 4.6 49.4 25.2v0.2c28.8 88.4 10.6 190-56.6 264.6zM850.8 584c-32.8 36.4-81.2 50.2-125.6 40.6-18.2-3.8-29.8-22-26-40.2 4-18.2 22-29.8 40-25.8v0c21.8 4.6 45.4-2.2 61.4-19.8 16-17.8 20.4-42 13.4-63.2v0c-5.6-17.6 4-36.8 21.8-42.6 17.8-5.6 36.8 4 42.6 21.8 14 43.4 5.2 93-27.6 129.2zM439.6 199.4c-6-10.2-19-15-29.2-10.8-10.2 4-13.2 15.6-7.4 25.4 6 9.8 18.6 14.6 28.6 10.8 10-3.6 13.6-15 8-25.4zM385.4 130.2c-16.4-26.2-51.6-37.6-78-25.6-26 11.8-33.8 42.2-17.4 67.8 16.2 25.4 50.2 36.8 76.4 25.8 26.6-11.4 35.2-41.6 19-68zM447 315.4c-80.6 21-171.8-19.2-206.8-90.2-35.8-72.4-1.2-153 80.2-179.4 84.4-27.2 184 14.6 218.6 92.6 34.2 76.6-8.4 155.2-92 177z" />
</font>
</defs>
</svg>
